<svg xmlns="http://www.w3.org/2000/svg" viewBox="0 0 19 16" fill="#5f5959"><path d="M9.5,7.4c1.6,0,3,0.6,4.1,1.6l-1.4,1.3c-0.7-0.7-1.7-1.1-2.7-1.1s-2,0.4-2.7,1.1L5.4,9.1C6.5,8.1,7.9,7.4,9.5,7.4z M2.7,6.4
	c1.8-1.8,4.2-2.7,6.8-2.7s5,1,6.8,2.7l-1.4,1.3l0,0c-1.4-1.4-3.4-2.2-5.4-2.2s-4,0.8-5.4,2.2L2.7,6.4z M14.7,1
	c1.6,0.7,3,1.6,4.3,2.8l0,0l-1.4,1.3C15.5,3,12.6,1.9,9.5,1.9S3.5,3,1.4,5.1L0,3.8C1.2,2.6,2.7,1.7,4.3,1c1.7-0.7,3.4-1,5.2-1
	S13.1,0.3,14.7,1z"/><circle cx="9.5" cy="12" r="1"/><polygon points="18.5,12 17.5,11 16,12.5 14.5,11 13.5,12 15,13.5 13.5,15 14.5,16 16,14.5 17.5,16 18.5,15 17,13.5 "/></svg>